<svg width="378.67" height="330.67" version="1.0" viewBox="0 0 355 310" xmlns="http://www.w3.org/2000/svg" xmlns:xlink="http://www.w3.org/1999/xlink">
	<defs>
		<linearGradient id="linearGradient5391">
			<stop stop-opacity=".92169" offset="0"/>
			<stop stop-opacity=".74096" offset=".125"/>
			<stop stop-opacity=".60241" offset=".25"/>
			<stop stop-opacity=".33133" offset=".5"/>
			<stop stop-opacity=".10843" offset=".75"/>
			<stop stop-opacity=".039216" offset=".875"/>
			<stop stop-opacity="0" offset="1"/>
		</linearGradient>
		<linearGradient id="linearGradient5688" x1="398" x2="398" y1="143" y2="220.94" gradientTransform="translate(0 140.01)" gradientUnits="userSpaceOnUse" xlink:href="#linearGradient5391"/>
		<linearGradient id="linearGradient5785" x1="349.88" x2="279.88" y1="99" y2="98.938" gradientTransform="translate(.0047558 140)" gradientUnits="userSpaceOnUse" xlink:href="#linearGradient5391"/>
		<linearGradient id="linearGradient5791" x1="350" x2="280" y1="99" y2="98.938" gradientTransform="translate(.0033289 140)" gradientUnits="userSpaceOnUse" xlink:href="#linearGradient5391"/>
		<linearGradient id="linearGradient6612" x1="396" x2="396" y1="66" y2="14.938" gradientTransform="translate(0 140)" gradientUnits="userSpaceOnUse" xlink:href="#linearGradient5391"/>
		<radialGradient id="radialGradient6995" cx="296.48" cy="80.417" r="17.5" gradientTransform="matrix(-1.1138e-6 -3.1125 -4.2667 1.3641e-6 615.12 1046.5)" gradientUnits="userSpaceOnUse" xlink:href="#linearGradient5391"/>
		<radialGradient id="radialGradient7795" cx="48.271" cy="177.38" r="17.5" gradientTransform="matrix(-3.8857 -.00026522 .00030788 -4.4501 682.51 1085.4)" gradientUnits="userSpaceOnUse" xlink:href="#linearGradient5391"/>
		<radialGradient id="radialGradient7795-5" cx="48.271" cy="177.38" r="17.5" gradientTransform="matrix(-3.8857 -.00026522 .00030788 -4.4501 682.51 1085.4)" gradientUnits="userSpaceOnUse">
			<stop stop-opacity=".92169" offset="0"/>
			<stop stop-opacity=".74096" offset=".125"/>
			<stop stop-opacity=".60241" offset=".25"/>
			<stop stop-opacity=".33133" offset=".5"/>
			<stop stop-opacity=".10843" offset=".75"/>
			<stop stop-opacity=".039216" offset=".875"/>
			<stop stop-opacity="0" offset="1"/>
		</radialGradient>
		<radialGradient id="radialGradient6995-2" cx="296.48" cy="80.417" r="17.5" gradientTransform="matrix(1.1138e-6 -3.1125 4.2667 1.3641e-6 -225.79 1046.5)" gradientUnits="userSpaceOnUse" xlink:href="#linearGradient5391"/>
	</defs>
	<g id="decoration-inactive-bottom" transform="translate(145.5 -80.938)">
		<path transform="matrix(.93749 0 0 .93749 215 80.938)" d="m117.33 215.54v7.4668h154.67v-7.4668z" stroke-width="1.0667"/>
		<path d="m325 290v2.8125h145v-2.8125z" fill="#ccc" opacity=".25" stroke-width=".63387"/>
		<path d="m325 292.82v85h145v-85z" fill-opacity="0"/>
	</g>
	<path id="decoration-inactive-center" d="m470.5 116.06v86h145v-86z"/>
	<g id="decoration-inactive-top" transform="translate(145.5 -89.938)">
		<path transform="matrix(.93749 0 0 .93749 215 89.938)" d="m117.33 90.734v33.066h154.67v-33.066z" stroke-width="1.0667"/>
		<path d="m325 172.19v2.8125h145v-2.8125z" fill="#ccc" opacity=".25" stroke-width=".30122"/>
		<path d="m325 137.19v35h145v-35z" fill-opacity="0"/>
	</g>
	<g id="decoration-inactive-left" transform="translate(120.62 -80.938)">
		<path transform="matrix(.93749 0 0 .93749 239.88 80.938)" d="m85.334 123.8v91.734h32v-91.734z" stroke-width="1.0667"/>
		<path d="m317.07 197v86h2.8125v-86z" fill="#ccc" opacity=".25" stroke-width=".30619"/>
		<path d="m242.06 197.01v86h74.875v-86z" fill-opacity="0"/>
	</g>
	<g id="decoration-inactive-topleft" transform="translate(140.5 -115)">
		<path transform="matrix(.93749 0 0 .93749 220 115)" d="m91.33 87.734c-4.498 0-8.9961 4.4592-8.9961 8.918v27.148h3v-27.148c0.0441-3.2855 2.6998-5.918 5.9961-5.918v-2e-3h26.004v-2.998z" fill="#ccc" opacity=".25" stroke-width="1.0667"/>
		<path transform="matrix(.93749 0 0 .93749 220 115)" d="m91.33 90.734c-3.2963 0-5.952 2.6325-5.9961 5.918v27.148l32.004-2e-3 -4e-3 -33.065h-26.004z" stroke-width="1.0667"/>
		<path d="m330 162.25v35l-6e-3 2e-3h-24.371c-4.2168 0-8.4338 4.1805-8.4338 8.3605v25.444l-2e-3 6e-3h-75.001v-50.813c0-9.972 8.0289-17.999 18.001-17.999z" fill-opacity="0"/>
	</g>
	<g id="decoration-inactive-topright" transform="translate(190.5 -115)">
		<path transform="matrix(.93749 0 0 .93749 170 115)" d="m272 90.734v33.063h31.998v-27.063c0-3.324-2.676-6-6-6z" stroke-width="1.0667"/>
		<path d="m449.38 197.25c4.2168 0 8.4338 4.1805 8.4338 8.3605v25.451h-2.8125v-25.451c-0.0413-3.0801-2.531-5.548-5.6213-5.548v-2e-3h-24.378v-2.8106z" fill="#ccc" opacity=".25"/>
		<path d="m425 162.25v35l6e-3 2e-3h24.371c4.2168 0 8.4338 4.1804 8.4338 8.3605v25.444l2e-3 6e-3h75.001v-50.813c0-9.9721-8.029-17.999-18.001-17.999z" fill-opacity="0"/>
	</g>
	<g id="decoration-inactive-right" transform="matrix(-1 0 0 1 965.5 -80.938)">
		<path transform="matrix(-.93749 0 0 .93749 605 80.938)" d="m272 123.8v91.734h32v-91.734z" stroke-width="1.0667"/>
		<path d="m320 197v86h-2.8125v-86z" fill="#ccc" opacity=".25" stroke-width=".30619"/>
		<path d="m317.19 196.99v86h-75v-86z" fill-opacity="0"/>
	</g>
	<g id="decoration-inactive-bottomright" transform="matrix(-1 0 0 1 1110.5 -93.938)">
		<path transform="matrix(-.93749 0 0 .93749 750 93.938)" d="m272 215.54v7.4668h32v-7.4668z" stroke-width="1.0667"/>
		<path d="m495 303v2.8125h-32.812v-9.8182l2.8094 4.3e-4v7.0001z" fill="#ccc" opacity=".25"/>
		<path d="m387.19 296v64.719c0 16.609 13.38 29.97 30 29.97l77.812 0.0625v-84.94h-32.812v-9.8126z" fill-opacity="0"/>
	</g>
	<g id="decoration-inactive-bottomleft" transform="translate(-24.503 -93.938)">
		<path transform="matrix(.93749 0 0 .93749 385 93.938)" d="m82.334 215.54v10.469h35v-3.002h-32v-7.4668z" fill="#ccc" opacity=".25" stroke-width="1.3208"/>
		<path transform="matrix(.93749 0 0 .93749 385 93.938)" d="m85.334 215.54v7.4668h32v-7.4668z" stroke-width="1.0667"/>
		<path d="m387.31 296v64.719c0 16.609 13.38 29.97 30 29.97l77.812 0.0625v-84.94h-32.812v-9.8126z" fill-opacity="0"/>
	</g>
	<g id="decoration-bottom" transform="translate(-215 -80.938)">
		<path d="m325 290.01v85h145v-85z" fill="url(#linearGradient5688)" opacity=".35"/>
		<path transform="matrix(.93749 0 0 .93749 215 80.938)" d="m117.33 215.54v7.4668h154.67v-7.4668h-154.67z" stroke-width="1.0667"/>
	</g>
	<path id="decoration-center" d="m110 116.06v86h145v-86z"/>
	<g id="decoration-top" transform="translate(-215 -89.938)">
		<path d="m325 140v35h145v-35z" fill="url(#linearGradient6612)" opacity=".35"/>
		<path transform="matrix(.93749 0 0 .93749 215 89.938)" d="m117.33 90.734v33.066h154.67v-33.066h-154.67z" stroke-width="1.0667"/>
	</g>
	<g id="decoration-left" transform="translate(-239.88 -80.938)">
		<path d="m245 197-2.9e-4 86h74.875l2.9e-4 -86z" fill="url(#linearGradient5785)" opacity=".35"/>
		<path transform="matrix(.93749 0 0 .93749 239.88 80.938)" d="m85.334 123.8v91.734h32v-91.734h-32z" stroke-width="1.0667"/>
	</g>
	<g id="decoration-topleft" transform="translate(-220,-115)" stroke-width="1.0667">
		<path transform="matrix(.93749 0 0 .93749 220 115)" d="m91.33 90.734c-3.2963 0-5.952 2.6325-5.9961 5.918v27.148l32.004-2e-3 -4e-3 -33.065h-26.004z"/>
		<path transform="matrix(.93749 0 0 .93749 220 115)" d="m24.533 53.4c-10.637 0-19.201 8.5623-19.201 19.199v51.201h80.002v-27.148c0.044097-3.2855 2.6998-5.918 5.9961-5.918v-0.001953h26.004v-37.332h-92.801z" fill="url(#radialGradient6995-2)" opacity=".35"/>
	</g>
	<g id="decoration-topright" transform="translate(-170,-115)" stroke-width="1.0667">
		<path transform="matrix(.93749 0 0 .93749 170 115)" d="m272 53.398v37.334l0.00586 0.001953h25.996c3.2951 0.0021 5.9492 2.6349 5.9922 5.9199 1.5e-4 -0.001531 0.00391-2.84e-4 0.00391-0.001953v27.145l0.00195 0.00195h80.002v-51.201c0-10.637-8.5645-19.199-19.201-19.199h-92.801z" fill="url(#radialGradient6995)" opacity=".35"/>
		<path transform="matrix(.93749 0 0 .93749 170 115)" d="m272 90.734v33.063h31.998v-27.063c0-3.324-2.676-6-6-6h-25.998z"/>
	</g>
	<g id="decoration-right" transform="matrix(-1 0 0 1 605 -80.938)">
		<path d="m320 197v86h-75v-86z" fill="url(#linearGradient5791)" opacity=".35"/>
		<path transform="matrix(-.93749 0 0 .93749 605 80.938)" d="m272 123.8v91.734h32v-91.734h-32z" stroke-width="1.0667"/>
	</g>
	<g id="decoration-bottomright" transform="matrix(-1 0 0 1 750 -93.938)">
		<path d="m390 296v61.907c0 16.609 13.38 29.97 30 29.97l75 0.0625v-84.94h-30v-7.0003z" fill="url(#radialGradient7795)" opacity=".35"/>
		<path transform="matrix(-.93749 0 0 .93749 750 93.938)" d="m272 215.54v7.4668h32v-7.4668h-32z" stroke-width="1.0667"/>
	</g>
	<g id="decoration-bottomleft" transform="translate(-385 -93.938)">
		<path d="m390 296v61.907c0 16.609 13.38 29.97 30 29.97l74.999 0.0625v-84.94h-29.999v-7.0003z" fill="url(#radialGradient7795-5)" opacity=".35"/>
		<path transform="matrix(.93749 0 0 .93749 385 93.938)" d="m85.334 215.54v7.4668h32v-7.4668h-32z" stroke-width="1.0667"/>
	</g>
	<g transform="translate(0,-90)" font-family="'Droid Sans'" font-size="9px" font-weight="bold" letter-spacing="0px" word-spacing="0px">
		<text x="169" y="187.91211" fill="#eff0f1" style="line-height:125%" xml:space="preserve"><tspan x="169" y="187.91211">Active</tspan></text>
		<text x="524.90997" y="187.91211" fill="#787878" style="line-height:125%" xml:space="preserve"><tspan x="524.90997" y="187.91211">Inactive</tspan></text>
	</g>
</svg>
