<svg width="81" height="16" version="1.1" viewBox="0 0 21.431 4.2333" xmlns="http://www.w3.org/2000/svg">
	<path id="inactive-center" d="m19.381 0.26459c-1.0229 0-1.8521 0.8292-1.8521 1.8521s0.8292 1.8521 1.8521 1.8521 1.8521-0.8292 1.8521-1.8521-0.8292-1.8521-1.8521-1.8521z" fill="#fff" opacity=".3" stroke-width=".26458"/>
	<path id="deactivated-center" d="m15.065 0.26459c-1.0229 0-1.8521 0.8292-1.8521 1.8521s0.8292 1.8521 1.8521 1.8521 1.8521-0.8292 1.8521-1.8521-0.8292-1.8521-1.8521-1.8521z" fill="#fff" opacity=".3" stroke-width=".26458"/>
	<path id="active-center" d="m2.1167 0.26458c-1.0229 0-1.8521 0.82921-1.8521 1.8521s0.8292 1.8521 1.8521 1.8521 1.8521-0.8292 1.8521-1.8521-0.8292-1.8521-1.8521-1.8521z" fill="#fd7d00" stroke="#b25800" stroke-width=".13229"/>
	<g id="pressed-center" transform="translate(4.4011 -305.04)">
		<path d="m2.0316 305.31c-1.0229 0-1.8521 0.8292-1.8521 1.8521s0.8292 1.8521 1.8521 1.8521 1.8521-0.8292 1.8521-1.8521-0.8292-1.8521-1.8521-1.8521z" fill="#fd7d00" stroke="#b25800" stroke-width=".13229"/>
		<path d="m1.2378 306.96v0.39687h1.5875v-0.39687z" color="#000000" opacity=".5" stroke-width=".22914" style="text-decoration-line:none;text-indent:0;text-transform:none"/>
	</g>
	<g id="hover-center" transform="translate(8.7171 -305.04)">
		<path d="m2.0316 305.31c-1.0229 0-1.8521 0.8292-1.8521 1.8521s0.8292 1.8521 1.8521 1.8521 1.8521-0.8292 1.8521-1.8521-0.8292-1.8521-1.8521-1.8521z" fill="#fd7d00" stroke="#b25800" stroke-width=".13229"/>
		<path d="m1.2378 306.96v0.39687h1.5875v-0.39687z" color="#000000" opacity=".5" stroke-width=".22914" style="text-decoration-line:none;text-indent:0;text-transform:none"/>
	</g>
</svg>
