<svg width="81" height="16" version="1.1" viewBox="0 0 21.431 4.2333" xmlns="http://www.w3.org/2000/svg">
	<path id="inactive-center" d="m19.381 0.26459c-1.0229 0-1.8521 0.8292-1.8521 1.8521s0.8292 1.8521 1.8521 1.8521 1.8521-0.8292 1.8521-1.8521-0.8292-1.8521-1.8521-1.8521z" fill="#fff" opacity=".3" stroke-width=".26458"/>
	<path id="deactivated-center" d="m15.065 0.26459c-1.0229 0-1.8521 0.8292-1.8521 1.8521s0.8292 1.8521 1.8521 1.8521 1.8521-0.8292 1.8521-1.8521-0.8292-1.8521-1.8521-1.8521z" fill="#fff" opacity=".3" stroke-width=".26458"/>
	<path id="active-center" d="m2.1167 0.26458c-1.0229 0-1.8521 0.8292-1.8521 1.8521s0.8292 1.8521 1.8521 1.8521 1.8521-0.8292 1.8521-1.8521-0.8292-1.8521-1.8521-1.8521z" fill="#8c42ab" stroke="#622e78" stroke-width=".13229"/>
	<g id="pressed-center" transform="translate(12.819 6.2177)">
		<path d="m-6.3861-5.9531c-1.0229 0-1.8521 0.8292-1.8521 1.8521s0.8292 1.8521 1.8521 1.8521 1.8521-0.8292 1.8521-1.8521-0.8292-1.8521-1.8521-1.8521z" fill="#8c42ab" stroke="#622e78" stroke-width=".13229"/>
		<path d="m-5.5923-4.2769-0.63952 0.63963c-0.084831 0.084845-0.22363 0.084843-0.30845 1.9e-6l-0.63952-0.63963h1.5875" fill-rule="evenodd" opacity=".5" stroke-width=".26641"/>
	</g>
	<g id="hover-center" transform="translate(17.135 6.2177)">
		<path d="m-6.3861-5.9531c-1.0229 0-1.8521 0.8292-1.8521 1.8521s0.8292 1.8521 1.8521 1.8521 1.8521-0.8292 1.8521-1.8521-0.8292-1.8521-1.8521-1.8521z" fill="#8c42ab" stroke="#622e78" stroke-width=".13229"/>
		<path d="m-7.1773-4.2754 0.637 0.637c0.084821 0.084821 0.22316 0.084343 0.30846-7.8e-6l0.637-0.637z" fill-rule="evenodd" opacity=".5" stroke-width=".26639"/>
	</g>
</svg>
