<svg width="378.67" height="330.67" version="1.0" viewBox="0 0 355 310" xmlns="http://www.w3.org/2000/svg" xmlns:xlink="http://www.w3.org/1999/xlink">
	<defs>
		<linearGradient id="a">
			<stop stop-opacity=".92169" offset="0"/>
			<stop stop-opacity=".74096" offset=".125"/>
			<stop stop-opacity=".60241" offset=".25"/>
			<stop stop-opacity=".33133" offset=".5"/>
			<stop stop-opacity=".10843" offset=".75"/>
			<stop stop-opacity=".039216" offset=".875"/>
			<stop stop-opacity="0" offset="1"/>
		</linearGradient>
		<linearGradient id="i" x1="398" x2="398" y1="143" y2="172.88" gradientTransform="matrix(1.0667 0 0 1.0667 -229.34 66.008)" gradientUnits="userSpaceOnUse" xlink:href="#a"/>
		<linearGradient id="h" x1="349.88" x2="279.88" y1="99" y2="98.938" gradientTransform="matrix(1.0667,0,0,1.0667,-258.87,63)" gradientUnits="userSpaceOnUse" xlink:href="#a"/>
		<linearGradient id="g" x1="350" x2="280" y1="99" y2="98.938" gradientTransform="matrix(-1.0667,0,0,1.0667,648.34,63)" gradientUnits="userSpaceOnUse" xlink:href="#a"/>
		<linearGradient id="f" x1="396" x2="396" y1="66" y2="14.938" gradientTransform="matrix(1.0667,0,0,1.0667,-229.34,50.403)" gradientUnits="userSpaceOnUse" xlink:href="#a"/>
		<radialGradient id="e" cx="296.48" cy="80.417" r="17.5" gradientTransform="matrix(-1.1138e-6,-3.1125,-4.2667,1.3641e-6,618.12,1043.5)" gradientUnits="userSpaceOnUse" xlink:href="#a"/>
		<radialGradient id="c" cx="48.271" cy="177.38" r="17.5" gradientTransform="matrix(4.1448 1.4787e-6 0 -1.8183 74.929 541.13)" gradientUnits="userSpaceOnUse" xlink:href="#a"/>
		<radialGradient id="b" cx="48.271" cy="177.38" r="17.5" gradientTransform="matrix(-4.1448 1.4787e-6 0 -1.8183 314.41 541.13)" gradientUnits="userSpaceOnUse">
			<stop stop-opacity=".92169" offset="0"/>
			<stop stop-opacity=".74096" offset=".125"/>
			<stop stop-opacity=".60241" offset=".25"/>
			<stop stop-opacity=".33133" offset=".5"/>
			<stop stop-opacity=".10843" offset=".75"/>
			<stop stop-opacity=".039216" offset=".875"/>
			<stop stop-opacity="0" offset="1"/>
		</radialGradient>
		<radialGradient id="d" cx="296.48" cy="80.417" r="17.5" gradientTransform="matrix(1.1138e-6,-3.1125,4.2667,1.3641e-6,-228.79,1043.5)" gradientUnits="userSpaceOnUse" xlink:href="#a"/>
	</defs>
	<g id="decoration-inactive-bottom" transform="translate(145.5 -80.938)">
		<path transform="matrix(.93749 0 0 .93749 215 80.938)" d="m117.33 215.54v7.4668h154.67v-7.4668z" opacity=".8" stroke-width="1.0667"/>
		<path d="m325 290v2.8125h145v-2.8125z" opacity=".25" stroke-width=".63387"/>
		<path d="m325 292.82v85h145v-85z" fill-opacity="0"/>
	</g>
	<path id="decoration-inactive-center" d="m470.5 116.06v86h145v-86z" opacity=".8"/>
	<g id="decoration-inactive-top" transform="translate(145.5 -89.938)">
		<path transform="matrix(.93749 0 0 .93749 215 89.938)" d="m117.33 90.734v33.066h154.67v-33.066z" opacity=".8" stroke-width="1.0667"/>
		<path d="m325 172.19v2.8125h145v-2.8125z" opacity=".25" stroke-width=".30122"/>
		<path d="m325 137.19v35h145v-35z" fill-opacity="0"/>
	</g>
	<g id="decoration-inactive-left" transform="translate(120.62 -80.938)">
		<path transform="matrix(.93749 0 0 .93749 239.88 80.938)" d="m85.334 123.8v91.734h32v-91.734z" opacity=".8" stroke-width="1.0667"/>
		<path d="m317.07 197v86h2.8125v-86z" opacity=".25" stroke-width=".30619"/>
		<path d="m242.06 197.01v86h74.875v-86z" fill-opacity="0"/>
	</g>
	<g id="decoration-inactive-topleft" transform="translate(140.5 -115)">
		<path transform="matrix(.93749 0 0 .93749 220 115)" d="m91.33 87.734c-4.498 0-8.9961 4.4592-8.9961 8.918v27.148h3v-27.148c0.0441-3.2855 2.6998-5.918 5.9961-5.918v-2e-3h26.004v-2.998z" opacity=".25" stroke-width="1.0667"/>
		<path transform="matrix(.93749 0 0 .93749 220 115)" d="m91.33 90.734c-3.2963 0-5.952 2.6325-5.9961 5.918v27.148l32.004-2e-3 -4e-3 -33.065h-26.004z" opacity=".8" stroke-width="1.0667"/>
		<path d="m330 162.25v35l-6e-3 2e-3h-24.371c-4.2168 0-8.4338 4.1805-8.4338 8.3605v25.444l-2e-3 6e-3h-75.001v-50.813c0-9.972 8.0289-17.999 18.001-17.999z" fill-opacity="0"/>
	</g>
	<g id="decoration-inactive-topright" transform="translate(190.5 -115)">
		<path transform="matrix(.93749 0 0 .93749 170 115)" d="m272 90.734v33.063h31.998v-27.063c0-3.324-2.676-6-6-6z" opacity=".8" stroke-width="1.0667"/>
		<path d="m449.38 197.25c4.2168 0 8.4338 4.1805 8.4338 8.3605v25.451h-2.8125v-25.451c-0.0413-3.0801-2.531-5.548-5.6213-5.548v-2e-3h-24.378v-2.8106z" opacity=".25"/>
		<path d="m425 162.25v35l6e-3 2e-3h24.371c4.2168 0 8.4338 4.1804 8.4338 8.3605v25.444l2e-3 6e-3h75.001v-50.813c0-9.9721-8.029-17.999-18.001-17.999z" fill-opacity="0"/>
	</g>
	<g id="decoration-inactive-right" transform="matrix(-1 0 0 1 965.5 -80.938)">
		<path transform="matrix(-.93749 0 0 .93749 605 80.938)" d="m272 123.8v91.734h32v-91.734z" opacity=".8" stroke-width="1.0667"/>
		<path d="m320 197v86h-2.8125v-86z" opacity=".25" stroke-width=".30619"/>
		<path d="m317.19 196.99v86h-75v-86z" fill-opacity="0"/>
	</g>
	<g id="decoration-inactive-bottomright" transform="matrix(-1 0 0 1 1110.5 -93.938)">
		<path d="m387.19 296v64.719c0 16.609 13.38 29.97 30 29.97l77.812 0.0625v-84.94h-32.812v-9.8126z" fill-opacity="0"/>
		<path d="m464.99 295.99 1e-4 5.1204c0 0.96098 0.7688 1.8774 1.8749 1.874l28.125 6e-3v-7z" opacity=".8" stroke-width=".93749"/>
		<path d="m462.18 296v6.0596c0 2.3777 1.3842 3.7475 3.6623 3.7475l29.15 8e-3v-2.8143l-28.122-0.0114c-1.1371 0-1.875-0.90401-1.875-1.874v-5.1146z" opacity=".25" stroke-width="1.2382"/>
	</g>
	<g id="decoration-inactive-bottomleft" transform="translate(-24.503 -93.938)">
		<path d="m387.31 296v64.719c0 16.609 13.38 29.97 30 29.97l77.812 0.0625v-84.94h-32.812v-9.8126z" fill-opacity="0"/>
		<path d="m462.19 296 4e-5 6.0596c0 2.3778 1.3841 3.7475 3.6622 3.7475l29.15 7e-3v-2.8144l-28.122-0.0114c-1.1371 0-1.875-0.90401-1.875-1.874l-3e-3 -5.1146z" opacity=".25" stroke-width="1.2382"/>
		<path d="m465 296 4e-5 5.1204c0 0.96098 0.76883 1.8774 1.875 1.874l28.125 6e-3v-7z" opacity=".8"/>
	</g>
	<g id="decoration-bottom" transform="translate(-215 -80.938)" stroke-width="1.0667">
		<path transform="matrix(.93749 0 0 .93749 215 80.938)" d="m272 223h-154.67v93.676h154.67z" fill="url(#i)" opacity=".35" stroke-width="1.0667"/>
		<path transform="matrix(.93749 0 0 .93749 215 80.938)" d="m117.33 215.54v7.4668h154.67v-7.4668h-154.67z" opacity=".8"/>
	</g>
	<path id="decoration-center" d="m110 116.06v86h145v-86z" opacity=".8"/>
	<g stroke-width="1.0667">
		<g id="decoration-top" transform="translate(-215,-89.938)">
			<path transform="matrix(.93749 0 0 .93749 215 89.938)" d="m117.33 50.402v40.334h154.67v-40.334z" fill="url(#f)" opacity=".35"/>
			<path transform="matrix(.93749 0 0 .93749 215 89.938)" d="m117.33 90.734v33.066h154.67v-33.066z" opacity=".8"/>
		</g>
		<g id="decoration-left" transform="translate(-239.88,-80.938)">
			<path transform="matrix(.93749 0 0 .93749 239.88 80.938)" d="m2.4648 123.8v91.734h82.871v-91.734z" fill="url(#h)" opacity=".35"/>
			<path transform="matrix(.93749 0 0 .93749 239.88 80.938)" d="m85.334 123.8v91.734h32v-91.734z" opacity=".8"/>
		</g>
		<g id="decoration-topleft" transform="translate(-220,-115)">
			<path transform="matrix(.93749 0 0 .93749 220 115)" d="m91.33 90.734c-3.2963 0-5.952 2.6325-5.9961 5.918v27.148l32.004-2e-3 -4e-3 -33.065h-26.004z" opacity=".8"/>
			<path transform="matrix(.93749 0 0 .93749 220 115)" d="m21.533 50.4c-10.637 0-19.201 8.5623-19.201 19.199v54.201h83.002v-27.148c0.0441-3.2855 2.6998-5.918 5.9961-5.918v-2e-3h26.004v-40.332h-95.801z" fill="url(#d)" opacity=".35"/>
		</g>
		<g id="decoration-topright" transform="translate(-170,-115)">
			<path transform="matrix(.93749 0 0 .93749 170 115)" d="m272 50.398v37.334l4e-3 2e-3v2.998h26.004v2e-3c3.2964 0 5.952 2.6325 5.9961 5.918v27.148h3v-2e-3h79.998v-54.201c0-10.637-8.5645-19.199-19.201-19.199h-95.801z" fill="url(#e)" opacity=".35"/>
			<path transform="matrix(.93749 0 0 .93749 170 115)" d="m272 90.734v33.063h31.998v-27.063c0-3.324-2.676-6-6-6z" opacity=".8"/>
		</g>
		<g id="decoration-right" transform="matrix(-1,0,0,1,605,-80.938)">
			<path transform="matrix(-.93749 0 0 .93749 605 80.938)" d="m304 123.8v91.734h82.998v-91.734z" fill="url(#g)" opacity=".35"/>
			<path transform="matrix(-.93749 0 0 .93749 605 80.938)" d="m272 123.8v91.734h32v-91.734z" opacity=".8"/>
		</g>
		<g id="decoration-bottomright" transform="matrix(-1,0,0,1,750,-93.938)">
			<path transform="matrix(-.93749 0 0 .93749 750 93.938)" d="m304.01 215.53-32.004 7.4727v2.998h-2e-3v90.604l83-0.0664c17.728 0 32-14.252 32-31.969v-69.033l-79.998-2e-3v-4e-3h-2.9961z" fill="url(#c)" opacity=".35"/>
			<path id="" d="m465 296 4e-5 5.1204c0 0.96097 0.76883 1.8774 1.875 1.874l28.125 6e-3v-7z" opacity=".8" stroke-width=".93749"/>
		</g>
		<g id="decoration-bottomleft" transform="translate(-385,-93.938)">
			<path transform="matrix(.93749 0 0 .93749 385 93.938)" d="m82.336 215.53-80 2e-3v69.033c0 17.716 14.272 31.969 32 31.969l83 0.0664v-90.604h-2e-3v-2.9941l-32-7.4668h-2.998v-6e-3z" fill="url(#b)" opacity=".35"/>
			<path d="m465 296 4e-5 5.1204c0 0.96101 0.76882 1.8773 1.875 1.874l28.125 6e-3v-7z" opacity=".8" stroke-width=".93749"/>
		</g>
	</g>
	<g transform="translate(0,-90)" font-family="'Droid Sans'" font-size="9px" font-weight="bold" letter-spacing="0px" word-spacing="0px">
		<text x="169" y="187.91211" fill="#eff0f1" style="line-height:125%" xml:space="preserve"><tspan x="169" y="187.91211">Active</tspan></text>
		<text x="524.90997" y="187.91211" fill="#787878" style="line-height:125%" xml:space="preserve"><tspan x="524.90997" y="187.91211">Inactive</tspan></text>
	</g>
</svg>
