<svg width="81" height="16" version="1.1" viewBox="0 0 21.431 4.2333" xmlns="http://www.w3.org/2000/svg" xmlns:xlink="http://www.w3.org/1999/xlink">
	<path id="inactive-center" d="m19.381 0.26459c-1.0229 0-1.8521 0.8292-1.8521 1.8521s0.8292 1.8521 1.8521 1.8521c1.0229 0 1.8521-0.8292 1.8521-1.8521s-0.8292-1.8521-1.8521-1.8521z" fill="#fff" opacity=".3" stroke-width=".26458"/>
	<path id="deactivated-center" d="m15.065 0.26459c-1.0229 0-1.8521 0.8292-1.8521 1.8521s0.8292 1.8521 1.8521 1.8521 1.8521-0.8292 1.8521-1.8521-0.8292-1.8521-1.8521-1.8521z" fill="#fff" opacity=".3" stroke-width=".26458"/>
	<g id="active-center" transform="translate(-17.529 10.168)">
		<path d="m19.645-9.9038c-1.0229 0-1.8521 0.8292-1.8521 1.8521s0.8292 1.8521 1.8521 1.8521c1.0229 0 1.8521-0.8292 1.8521-1.8521s-0.8292-1.8521-1.8521-1.8521z" fill="#19a187" stroke="#12715f" stroke-width=".13229"/>
	</g>
	<g id="pressed-center" transform="translate(-13.213 10.168)" stroke-width=".13229">
		<path d="m19.645-9.9038c-1.0229 0-1.8521 0.8292-1.8521 1.8521s0.8292 1.8521 1.8521 1.8521c1.0229 0 1.8521-0.8292 1.8521-1.8521s-0.8292-1.8521-1.8521-1.8521z" fill="#19a187" stroke="#12715f"/>
		<circle cx="19.645" cy="-8.0518" r=".39687" opacity=".5"/>
	</g>
	<g id="hover-center" transform="translate(-8.8966 10.168)" stroke-width=".13229">
		<path d="m19.645-9.9038c-1.0229 0-1.8521 0.8292-1.8521 1.8521s0.8292 1.8521 1.8521 1.8521c1.0229 0 1.8521-0.8292 1.8521-1.8521s-0.8292-1.8521-1.8521-1.8521z" fill="#19a187" stroke="#12715f"/>
		<circle cx="19.645" cy="-8.0518" r=".39687" opacity=".5"/>
	</g>
</svg>
